<svg preserveAspectRatio="none" width="204" height="37" viewBox="0 0 204 37" fill="none" xmlns="http://www.w3.org/2000/svg">
<path d="M0 16.9584C4.53333 16.9584 4.53333 26.2083 9.06666 26.2083C13.6 26.2083 13.6 37 18.1333 37C22.6667 37 22.6667 29.2917 27.2 29.2917C31.7333 29.2917 31.7333 21.5834 36.2667 21.5834C40.8 21.5834 40.8 23.5104 45.3333 23.5104C49.8667 23.5104 49.8667 26.2084 54.4 26.2084C58.9333 26.2083 58.9333 12.3334 63.4667 12.3334C68 12.3333 68 21.1979 72.5334 21.1979C77.0667 21.1979 77.0667 7.70833 81.6 7.70833C86.1334 7.70833 86.1334 9.25002 90.6667 9.25002C95.2 9.25002 95.2 16.9584 99.7333 16.9584C104.267 16.9584 104.267 26.2083 108.8 26.2083C113.333 26.2083 113.537 15.7675 117.867 10.7917C121.056 7.12612 122.4 3.08334 126.933 3.08336C131.467 3.08339 131.467 7.70836 136 7.70836C140.533 7.70836 145.067 8.95934e-06 149.6 0C154.133 -8.95931e-06 154.133 4.625 158.667 4.625C163.2 4.625 163.767 21.5833 167.733 21.5833C171.7 21.5833 172.267 10.7917 176.8 10.7917C181.333 10.7917 181.333 16.9583 185.867 16.9583C190.4 16.9583 190.4 10.7917 194.933 10.7917C199.467 10.7917 198.333 0.385417 204 0.385417" stroke="#22C55E" stroke-width="1.54346"/>
</svg>
