<svg preserveAspectRatio="none" width="204" height="63" viewBox="0 0 204 63" fill="none" xmlns="http://www.w3.org/2000/svg">
<path d="M9.06666 26.1219C4.53333 26.1219 4.53333 16.9025 0 16.9025V56.8262C0 60.2359 2.76412 63 6.17382 63H197.826C201.236 63 204 60.2468 204 56.8371V0.384146C198.333 0.384146 199.467 10.7561 194.933 10.7561C190.4 10.7561 190.4 16.9024 185.867 16.9024C181.333 16.9024 181.333 10.7561 176.8 10.7561C172.267 10.7561 171.7 21.5122 167.733 21.5122C163.767 21.5122 163.2 4.60975 158.667 4.60975C154.133 4.60975 154.133 -8.92978e-06 149.6 0C145.067 8.9298e-06 140.533 7.68295 136 7.68295C131.467 7.68295 131.467 3.07322 126.933 3.0732C122.4 3.07318 121.056 7.10263 117.867 10.7561C113.537 15.7155 113.333 26.122 108.8 26.1219C104.267 26.1219 104.267 16.9025 99.7334 16.9025C95.2 16.9025 95.2 9.21952 90.6667 9.21952C86.1333 9.21952 86.1333 7.68292 81.6 7.68292C77.0667 7.68292 77.0667 21.1281 72.5333 21.1281C68 21.1281 68 12.2927 63.4667 12.2927C58.9333 12.2927 58.9333 26.1219 54.4 26.122C49.8667 26.122 49.8667 23.4329 45.3333 23.4329C40.8 23.4329 40.8 21.5122 36.2667 21.5122C31.7333 21.5122 31.7333 29.1951 27.2 29.1951C22.6667 29.1951 22.6667 36.878 18.1333 36.878C13.6 36.878 13.6 26.1219 9.06666 26.1219Z" fill="url(#paint0_linear_59_2541)"/>
<defs>
<linearGradient id="paint0_linear_59_2541" x1="102" y1="0" x2="102" y2="63" gradientUnits="userSpaceOnUse">
<stop stop-color="#22C55E" stop-opacity="0.1"/>
<stop offset="1" stop-color="#22C55E" stop-opacity="0"/>
</linearGradient>
</defs>
</svg>
