<svg preserveAspectRatio="none" width="17" height="17" viewBox="0 0 17 17" fill="none" xmlns="http://www.w3.org/2000/svg">
<path d="M4.48909 7.06143C3.78167 7.06143 3.20288 7.64023 3.20288 8.34764C3.20288 9.05506 3.78167 9.63386 4.48909 9.63386C5.19651 9.63386 5.7753 9.05506 5.7753 8.34764C5.7753 7.64023 5.19651 7.06143 4.48909 7.06143ZM12.2064 7.06143C11.4989 7.06143 10.9202 7.64023 10.9202 8.34764C10.9202 9.05506 11.4989 9.63386 12.2064 9.63386C12.9138 9.63386 13.4926 9.05506 13.4926 8.34764C13.4926 7.64023 12.9138 7.06143 12.2064 7.06143ZM8.34773 7.06143C7.64031 7.06143 7.06151 7.64023 7.06151 8.34764C7.06151 9.05506 7.64031 9.63386 8.34773 9.63386C9.05514 9.63386 9.63394 9.05506 9.63394 8.34764C9.63394 7.64023 9.05514 7.06143 8.34773 7.06143Z" fill="#B8BFCC"/>
</svg>
