<svg preserveAspectRatio="none" width="21" height="13" viewBox="0 0 21 13" fill="none" xmlns="http://www.w3.org/2000/svg">
<rect x="0.606369" y="0.434515" width="19.5504" height="11.8332" rx="5.91658" fill="#3B82F6"/>
<path d="M6.52288 5.06494C5.81546 5.06494 5.23666 5.64373 5.23666 6.35115C5.23666 7.05857 5.81546 7.63736 6.52288 7.63736C7.23029 7.63736 7.80909 7.05857 7.80909 6.35115C7.80909 5.64373 7.23029 5.06494 6.52288 5.06494ZM14.2402 5.06494C13.5327 5.06494 12.9539 5.64373 12.9539 6.35115C12.9539 7.05857 13.5327 7.63736 14.2402 7.63736C14.9476 7.63736 15.5264 7.05857 15.5264 6.35115C15.5264 5.64373 14.9476 5.06494 14.2402 5.06494ZM10.3815 5.06494C9.6741 5.06494 9.0953 5.64373 9.0953 6.35115C9.0953 7.05857 9.6741 7.63736 10.3815 7.63736C11.0889 7.63736 11.6677 7.05857 11.6677 6.35115C11.6677 5.64373 11.0889 5.06494 10.3815 5.06494Z" fill="#EFF6FF"/>
</svg>
