<svg preserveAspectRatio="none" width="25" height="25" viewBox="0 0 25 25" fill="none" xmlns="http://www.w3.org/2000/svg">
<path opacity="0.25" d="M12.9916 1.9958C10.816 1.9958 8.68926 2.64094 6.88032 3.84963C5.07138 5.05833 3.66149 6.77629 2.82892 8.78628C1.99636 10.7963 1.77852 13.008 2.20296 15.1418C2.6274 17.2756 3.67504 19.2356 5.21342 20.774C6.7518 22.3124 8.71181 23.36 10.8456 23.7844C12.9794 24.2089 15.1911 23.991 17.2011 23.1585C19.2111 22.3259 20.9291 20.916 22.1378 19.1071C23.3465 17.2981 23.9916 15.1714 23.9916 12.9958C23.9916 10.0784 22.8327 7.28052 20.7698 5.21762C18.7069 3.15472 15.909 1.9958 12.9916 1.9958ZM12.9916 20.9958C11.4093 20.9958 9.86263 20.5266 8.54703 19.6476C7.23144 18.7685 6.20606 17.5191 5.60056 16.0573C4.99506 14.5955 4.83663 12.9869 5.14531 11.4351C5.454 9.88323 6.21592 8.45776 7.33474 7.33894C8.45356 6.22012 9.87903 5.4582 11.4309 5.14952C12.9827 4.84083 14.5913 4.99926 16.0531 5.60476C17.5149 6.21026 18.7643 7.23564 19.6434 8.55124C20.5224 9.86683 20.9916 11.4135 20.9916 12.9958C20.9916 15.1175 20.1487 17.1524 18.6485 18.6527C17.1482 20.1529 15.1133 20.9958 12.9916 20.9958Z" fill="white"/>
<path d="M11.7116 20.8958C10.6219 20.7202 9.58038 20.3209 8.65248 19.7232C7.72458 19.1255 6.9304 18.3423 6.31989 17.4228C5.70938 16.5032 5.29575 15.4673 5.10502 14.3802C4.91428 13.2931 4.95057 12.1782 5.2116 11.1058C5.54384 9.61687 6.30703 8.25868 7.40602 7.2006C8.505 6.14252 9.89114 5.43136 11.3916 5.1558C12.4445 4.94095 13.5299 4.94045 14.5831 5.15431C15.6362 5.36817 16.6354 5.79201 17.5212 6.40053C18.4069 7.00906 19.1609 7.7898 19.7383 8.69615C20.3156 9.60249 20.7045 10.6159 20.8816 11.6758C20.9336 12.0366 21.1118 12.3672 21.3847 12.6089C21.6575 12.8506 22.0072 12.9877 22.3716 12.9958H22.5016C22.6976 12.9987 22.8919 12.9596 23.0715 12.881C23.2511 12.8024 23.4117 12.6862 23.5425 12.5402C23.6733 12.3943 23.7713 12.2219 23.8298 12.0348C23.8883 11.8477 23.9059 11.6503 23.8816 11.4558C23.5971 9.44315 22.7605 7.54869 21.4646 5.98267C20.1687 4.41665 18.4643 3.24032 16.5404 2.58422C14.6166 1.92813 12.5485 1.81793 10.5658 2.26586C8.58315 2.71379 6.76335 3.70233 5.3084 5.12177C3.85344 6.54121 2.82024 8.33603 2.32346 10.3071C1.82668 12.2781 1.88575 14.3482 2.49411 16.2877C3.10247 18.2272 4.23633 19.9602 5.76986 21.2943C7.30338 22.6285 9.17659 23.5117 11.1816 23.8458C11.4027 23.8852 11.6297 23.8757 11.8468 23.8181C12.0639 23.7605 12.2657 23.656 12.4381 23.5122C12.6106 23.3683 12.7495 23.1885 12.8451 22.9853C12.9407 22.782 12.9907 22.5604 12.9916 22.3358C12.9873 21.9819 12.8555 21.6414 12.6204 21.3769C12.3853 21.1123 12.0626 20.9415 11.7116 20.8958Z" fill="white"/>
</svg>
